<svg xmlns="http://www.w3.org/2000/svg" width="32" height="32" fill="none" viewBox="0 0 32 32"><rect width="32" height="32" fill="#0007B8" rx="4"/><path fill="url(#paint0_linear_11924_172856)" d="M19.9937 11.3559L15.8343 9.46597L13.0049 10.1247V10.3164L16.5747 12.2162L19.9937 11.3559Z"/><path fill="url(#paint1_linear_11924_172856)" d="M21.2495 17.4206L16.1093 15.0484L11.9355 16.1778V16.4541L16.3265 18.8777L21.2495 17.4242V17.4206Z"/><path fill="#fff" d="M13.0049 10.3155L15.8343 9.65405L18.9949 8.91789V7.0001L13.0049 8.32302V10.3155Z"/><path fill="#fff" d="M19.9949 11.3559L16.575 12.2153L11.9355 13.3853V16.4523L16.1093 15.3238L19.9949 14.2726V11.3559Z"/><path fill="#fff" d="M21.2499 17.4252L16.3251 18.8787L11 20.4499V25.0001L21.2499 21.664V17.4252Z"/><defs><linearGradient id="paint0_linear_11924_172856" x1="13.005" x2="19.994" y1="10.84" y2="10.84" gradientUnits="userSpaceOnUse"><stop offset=".17" stop-color="#fff"/><stop offset=".84" stop-color="#fff" stop-opacity="0"/></linearGradient><linearGradient id="paint1_linear_11924_172856" x1="11.935" x2="21.25" y1="16.964" y2="16.964" gradientUnits="userSpaceOnUse"><stop offset=".17" stop-color="#fff"/><stop offset=".84" stop-color="#fff" stop-opacity="0"/></linearGradient></defs></svg>